<?xml version="1.0" encoding="utf-8"?>
<!-- Generator: Adobe Illustrator 15.1.0, SVG Export Plug-In . SVG Version: 6.00 Build 0)  -->
<!DOCTYPE svg PUBLIC "-//W3C//DTD SVG 1.1//EN" "http://www.w3.org/Graphics/SVG/1.1/DTD/svg11.dtd">
<svg version="1.1" id="Layer_1" xmlns="http://www.w3.org/2000/svg" xmlns:xlink="http://www.w3.org/1999/xlink" x="0px" y="0px"
	 width="841.891px" height="595.277px" viewBox="0 0 841.891 595.277" enable-background="new 0 0 841.891 595.277"
	 xml:space="preserve">
<g display="none">
	<path display="inline" fill="#E2185F" d="M503.645,524.707h-31.173l-5.48,23.637h-30.146l33.913-111.332h35.627L540.3,548.344
		h-31.173L503.645,524.707z M498.336,501.927l-1.884-7.707c-2.74-10.62-5.48-24.151-8.222-35.284h-0.685
		c-2.398,11.305-5.139,24.664-7.879,35.284l-1.885,7.707H498.336z"/>
	<path display="inline" fill="#E2185F" d="M567.597,437.011h43.163c23.979,0,44.532,8.906,44.532,36.996
		c0,27.234-21.238,39.053-44.532,39.053h-13.703v35.283h-29.46V437.011z M609.389,489.765c11.647,0,17.128-5.823,17.128-15.758
		c0-9.934-6.166-13.702-17.128-13.702h-12.332v29.46H609.389z"/>
	<path display="inline" fill="#E2185F" d="M689.587,437.011h29.46v111.332h-29.46V437.011z"/>
</g>
<path fill="#FFFFFF" d="M794.305,22.225c-0.651,0.009-1.327,0.022-1.987,0.048c-4.43,0.184-8.897,1.13-13.002,2.854
	c-3.859,1.492-7.431,3.652-10.564,6.33c-3.173,2.597-5.924,5.699-8.107,9.171c-2.287,3.473-3.996,7.336-5.015,11.354
	c-0.433,1.65-0.756,3.327-0.981,5.01c-0.22,1.729-0.324,3.473-0.324,5.215c-0.021,5.107,0.907,10.264,2.894,14.988
	c1.5,3.863,3.675,7.425,6.327,10.566c2.616,3.167,5.694,5.918,9.183,8.115c3.468,2.276,7.338,3.988,11.353,4.993
	c1.649,0.449,3.324,0.773,5.012,0.989c1.73,0.227,3.464,0.334,5.219,0.334c5.104,0.027,10.257-0.917,14.979-2.906
	c3.853-1.485,7.432-3.659,10.569-6.324c3.153-2.604,5.921-5.704,8.11-9.172c2.29-3.479,3.997-7.342,5.014-11.364
	c0.429-1.643,0.758-3.315,0.972-5.004c0.234-1.729,0.335-3.465,0.335-5.215c0.021-5.101-0.906-10.264-2.896-14.988
	c-1.505-3.853-3.669-7.416-6.332-10.559c-2.61-3.172-5.698-5.922-9.177-8.118c-3.476-2.276-7.331-3.996-11.354-5.004
	c-1.652-0.436-3.331-0.763-5.019-0.977c-1.055-0.146-2.151-0.248-3.228-0.29C795.629,22.247,794.956,22.234,794.305,22.225"/>
<path fill="#FFFFFF" d="M830.428,191.277v-60.139c-0.443,0-0.867,0-1.293,0.009c-2.879,0.006-5.759,0.071-8.642,0.205
	c-2.562,0.11-5.102,0.286-7.658,0.516c-2.354,0.225-4.732,0.498-7.08,0.841c-2.223,0.322-4.398,0.708-6.565,1.175
	c-0.822,0.18-1.666,0.366-2.485,0.568c-0.802,0.185-1.599,0.404-2.396,0.615c-5.498,1.492-10.93,3.552-15.662,6.745
	c-3.277,2.057-6.232,4.628-8.715,7.598c-2.567,2.993-4.639,6.399-6.232,10.002c-2.027,4.496-3.352,9.308-4.149,14.183
	c-0.479,2.777-0.808,5.575-1.013,8.385c-0.173,2.131-0.273,4.271-0.305,6.409c-0.04,0.96-0.042,1.923-0.05,2.889l-0.004,0.253
	c0,2.003,0.004,4.017,0.004,6.023c0.015,14.008,0.004,28.027,0,42.037c-0.004,13.354,0,26.697,0,40.046v40.035v40.051v16.016v10.016
	v6.006c1.509-0.002,3.019-0.008,4.532-0.045c2.849-0.035,5.703-0.162,8.57-0.334c6.263-0.361,12.518-1.055,18.664-2.416
	c5.449-1.129,10.832-2.787,15.762-5.359c3.832-1.908,7.412-4.34,10.459-7.354c3.048-2.896,5.554-6.352,7.489-10.096
	c2.198-4.1,3.686-8.572,4.669-13.094c0.666-2.951,1.143-5.945,1.467-8.955c0.317-2.896,0.504-5.822,0.571-8.736
	c0.049-1.342,0.06-2.666,0.069-4.008l0.002-139.835L830.428,191.277z"/>
<path fill="#FFFFFF" d="M580.948,109.551c-2.323,0.035-4.64,0.073-6.963,0.164c-15.665,0.654-31.396,3.982-45.92,10.086
	c-13.603,5.264-26.188,12.902-37.267,22.312c-11.193,9.18-20.894,20.126-28.658,32.375c-8.034,12.286-14.098,25.904-17.641,40.091
	c-1.547,5.811-2.695,11.713-3.452,17.673c-0.507,3.802-0.867,7.606-1.029,11.426c-0.101,2.325-0.141,4.647-0.171,6.971v141.113
	c1.51-0.004,3.031-0.01,4.525-0.047c9.128-0.119,18.318-0.688,27.261-2.75c5.454-1.123,10.815-2.787,15.75-5.357
	c3.829-1.914,7.426-4.34,10.466-7.352c3.035-2.896,5.546-6.352,7.479-10.098c2.209-4.1,3.68-8.57,4.685-13.094
	c0.663-2.951,1.126-5.945,1.453-8.955c0.315-2.898,0.5-5.805,0.575-8.73c0.021-1.346,0.055-2.67,0.061-4.014v-80.711
	c0.015-1.13,0.024-2.265,0.087-3.392c0.32-7.647,1.94-15.321,4.909-22.414c2.567-6.637,6.308-12.783,10.885-18.196
	c4.493-5.453,9.838-10.183,15.8-13.97c5.995-3.932,12.645-6.873,19.562-8.614c2.854-0.763,5.729-1.324,8.628-1.692
	c2.979-0.392,5.982-0.588,8.979-0.577c8.8-0.056,17.691,1.577,25.812,4.994c6.646,2.564,12.781,6.3,18.185,10.9
	c5.476,4.476,10.229,9.828,13.989,15.797c3.122,4.775,5.563,9.961,7.375,15.402c2.017,5.919,3.236,12.135,3.402,18.368
	c0.06,1.127,0.068,2.262,0.104,3.392v80.711c0.009,1.34,0.018,2.664,0.045,4.008c0.165,7.342,0.879,14.74,3.104,21.764
	c1.223,4.287,2.991,8.451,5.457,12.213c2.242,3.514,5.056,6.689,8.322,9.281c3.388,2.781,7.278,4.947,11.319,6.596
	c6.13,2.605,12.656,4.094,19.23,4.996c3.434,0.5,6.858,0.828,10.307,1.066c3.302,0.244,6.615,0.391,9.937,0.426
	c1.512,0.039,3.002,0.045,4.512,0.047V250.649c-0.023-2.32-0.072-4.646-0.166-6.968c-0.646-15.669-3.963-31.376-10.079-45.918
	c-5.26-13.593-12.902-26.19-22.308-37.28c-9.192-11.188-20.121-20.88-32.371-28.631c-12.282-8.045-25.9-14.102-40.104-17.649
	c-5.808-1.562-11.711-2.692-17.667-3.466c-3.803-0.507-7.604-0.863-11.433-1.021C585.598,109.619,583.272,109.583,580.948,109.551"
	/>
<path fill="#FFFFFF" d="M331.486,131.138v200.225c0.01,1.342,0.016,2.666,0.052,4.01c0.167,7.342,0.885,14.738,3.104,21.762
	c1.215,4.287,3.008,8.451,5.464,12.211c2.232,3.518,5.051,6.693,8.315,9.283c3.384,2.783,7.268,4.947,11.32,6.596
	c6.12,2.605,12.657,4.096,19.229,4.994c3.429,0.504,6.864,0.832,10.312,1.07c3.303,0.242,6.609,0.389,9.92,0.424
	c1.511,0.039,3.024,0.045,4.522,0.047v-6.008v-12.018v-30.035c0-13.357,0.006-26.691,0-40.051c0-13.352-0.003-26.693,0-40.037
	c0.006-13.35,0.034-26.687,0-40.048c-0.005-5.341-0.015-10.688,0-16.02c0.023-5.336,0.076-10.651,0-16.017
	c-0.102-8.676-0.556-17.476-3.156-25.764c-1.213-4.296-3.011-8.465-5.461-12.22c-2.236-3.523-5.051-6.689-8.311-9.284
	c-3.386-2.781-7.273-4.94-11.333-6.604c-6.114-2.599-12.649-4.086-19.224-4.983c-3.429-0.499-6.854-0.841-10.298-1.077
	c-3.31-0.234-6.623-0.368-9.934-0.416C334.502,131.152,332.982,131.146,331.486,131.138"/>
<path fill="#FFFFFF" d="M367.384,20.59c-1.594,0.035-3.19,0.072-4.776,0.162c-10.755,0.608-21.349,3.646-31.315,7.9
	c-11.834,4.79-22.792,11.258-33.098,18.639c-10.879,7.619-21.027,16.26-30.468,25.634c-9.137,8.945-17.602,18.588-25.01,28.979
	c-2.763,3.803-5.394,7.711-7.853,11.714c-2.022,3.255-3.929,6.591-5.646,10.022c-0.71,1.379-1.366,2.788-2.035,4.187
	c-0.646-0.378-1.279-0.766-1.926-1.135c-1.278-0.75-2.574-1.476-3.887-2.186c-3.286-1.771-6.64-3.42-10.056-4.92
	c-4.572-2.04-9.288-3.822-14.069-5.314c-4.833-1.558-9.749-2.828-14.737-3.819c-5.053-1.035-10.173-1.779-15.311-2.214
	c-2.084-0.185-4.173-0.322-6.274-0.416c-1.313-0.054-2.625-0.101-3.946-0.12c-0.795-0.014-1.588-0.014-2.387-0.019
	c-2.319,0.028-4.645,0.063-6.956,0.175c-4.557,0.188-9.111,0.645-13.641,1.325c-11.001,1.582-21.838,4.474-32.152,8.719
	c-13.508,5.299-26.123,12.874-37.19,22.255c-11.179,9.138-20.833,20.068-28.549,32.29c-8.025,12.254-14.06,25.838-17.602,39.987
	c-1.563,5.799-2.706,11.69-3.462,17.637c-0.807,6.08-1.21,12.217-1.182,18.351c-0.016,3.705,0.135,7.416,0.437,11.11
	c0.236,3.042,0.569,6.061,1.014,9.084c0.428,2.977,0.95,5.943,1.589,8.889c0.603,2.926,1.312,5.822,2.118,8.693
	c0.324,1.143,0.651,2.283,1.005,3.414c0.345,1.127,0.708,2.258,1.083,3.377c1.307,4.002,2.688,7.986,4.297,11.861
	c1.316,3.227,2.788,6.387,4.362,9.49c1.569,3.09,3.238,6.119,5.033,9.086c1.771,2.961,3.659,5.852,5.66,8.662
	c0.795,1.123,1.605,2.236,2.432,3.348c0.517,0.678,1.04,1.369,1.572,2.041c0.318,0.426,0.635,0.83,0.954,1.227
	c-0.578,0.5-1.155,0.994-1.716,1.498c-1.138,1.02-2.238,2.072-3.319,3.154c-2.701,2.68-5.242,5.547-7.575,8.562
	c-3.154,4.006-5.951,8.293-8.328,12.818c-2.464,4.525-4.495,9.273-6.094,14.191c-1.677,4.971-2.894,10.117-3.603,15.311
	c-0.313,2.125-0.543,4.256-0.684,6.396c-0.16,2.176-0.243,4.346-0.235,6.514c-0.007,2.184,0.076,4.35,0.24,6.51
	c0.117,1.801,0.301,3.58,0.53,5.352c0.234,1.744,0.521,3.496,0.861,5.221c0.329,1.73,0.704,3.439,1.144,5.127
	c0.178,0.689,0.351,1.354,0.542,2.012c0.179,0.682,0.382,1.336,0.575,2.008c2.196,7.291,4.869,14.496,8.662,21.125
	c2.972,5.514,6.711,10.604,10.914,15.285c4.138,4.68,8.747,8.941,13.78,12.668c5.017,3.803,10.46,7.053,16.191,9.615
	c2.31,1.07,4.66,2.029,7.054,2.896c1.498,0.545,3.013,1.041,4.559,1.508c0.918,0.271,1.845,0.514,2.773,0.791l0.353,0.098
	l0.985,0.242l0.415,0.098l0.361,0.084l0.342,0.088l1.061,0.244l0.354,0.074l0.339,0.082l0.36,0.074l0.724,0.146l0.351,0.074
	l0.354,0.076l0.356,0.072l0.364,0.07l0.358,0.047l0.351,0.066l0.366,0.074l0.355,0.062l1.178,0.172l0.273,0.053l0.358,0.047
	l1.086,0.154l0.364,0.055l0.739,0.094l0.363,0.055l1.095,0.119l0.369,0.049l0.367,0.025l1.841,0.152l0.16,0.012l0.221,0.01
	l1.854,0.129l0.229,0.014l0.141,0.016c0.167,0.002,0.34,0.025,0.504,0.029c0.131,0.004,0.279,0.006,0.413,0.014
	c0.14,0.004,0.278,0.008,0.415,0.012c0.142,0.004,0.274,0.008,0.422,0.012c0.106,0.004,0.22,0.004,0.331,0.006l0.16,0.002
	c0.194,0.006,0.392,0.006,0.59,0.01c0.146,0.002,0.288,0.002,0.44,0.025c0.13,0,0.289,0,0.442,0.002h0.44h0.344H227.42
	c0.938,0.01,1.874,0.018,2.808,0.033c5.845,0.145,11.732,0.791,17.371,2.449c4.099,1.08,8.086,2.689,11.702,4.932
	c2.937,1.766,5.638,3.928,7.909,6.479c2.269,2.463,4.122,5.275,5.529,8.303c1.54,3.156,2.558,6.564,3.138,10.025
	c0.167,0.91,0.292,1.836,0.402,2.738c0.082,0.719,0.147,1.438,0.199,2.148c0.048,0.725,0.085,1.453,0.125,2.178
	c1.685-1.262,3.375-2.516,5.015-3.846c3.077-2.484,5.973-5.189,8.668-8.084c4.472-4.727,8.383-10.008,11.395-15.779
	c3.502-6.441,5.857-13.545,6.711-20.842c0.946-6.73,0.611-13.611-0.988-20.205c-1.429-6.402-4.042-12.521-7.676-17.963
	c-3.512-5.486-8.026-10.301-13.295-14.139c-5.335-4.025-11.467-7.043-17.902-8.684c-1.903-0.545-3.842-0.945-5.804-1.268
	c-1.496-0.236-3.015-0.426-4.532-0.549c-1.543-0.105-3.103-0.154-4.656-0.18H104.973c-0.3-0.004-0.591-0.008-0.892-0.02
	c-2.006-0.086-4.014-0.518-5.866-1.307c-1.748-0.66-3.357-1.639-4.781-2.848c-1.428-1.172-2.669-2.561-3.665-4.143
	c-1.033-1.578-1.807-3.307-2.265-5.135c-0.187-0.732-0.341-1.502-0.44-2.25c-0.062-0.492-0.102-0.975-0.128-1.455
	c-0.013-0.309-0.016-0.617-0.018-0.912c0.002-0.285,0.005-0.582,0.015-0.881c0.033-0.568,0.084-1.148,0.167-1.715
	c0.195-1.381,0.557-2.754,1.09-4.07c0.655-1.703,1.601-3.307,2.772-4.721c1.134-1.412,2.488-2.656,4.021-3.643
	c1.527-1.041,3.221-1.834,4.995-2.33c0.717-0.209,1.46-0.367,2.207-0.477c0.461-0.076,0.938-0.146,1.417-0.17
	c0.285-0.035,0.589-0.043,0.878-0.053l0.494-0.002h49.934c0.069,0,0.133-0.002,0.203-0.002c0.054,0,0.114,0,0.168,0.002h0.186
	c0.092,0.002,0.203,0.002,0.312,0.002c2.323-0.025,4.649-0.072,6.971-0.158c4.578-0.188,9.143-0.656,13.668-1.342
	c11.037-1.57,21.906-4.49,32.251-8.748c13.535-5.297,26.173-12.902,37.273-22.307c11.211-9.178,20.894-20.139,28.63-32.371
	c8.047-12.297,14.101-25.912,17.653-40.102c1.562-5.809,2.695-11.713,3.464-17.674c0.807-6.096,1.227-12.25,1.19-18.392
	c0.005-4.207-0.204-8.412-0.632-12.591c-0.329-3.471-0.813-6.919-1.437-10.355c-0.611-3.409-1.348-6.801-2.224-10.153
	c-0.867-3.354-1.843-6.672-2.957-9.953c-0.438-1.294-0.89-2.604-1.371-3.896c-0.479-1.29-0.982-2.565-1.487-3.854
	c-1.837-4.68-3.71-9.342-5.935-13.847c-1.795-3.74-3.827-7.378-5.997-10.915c-2.161-3.544-4.468-6.988-6.923-10.312
	c-2.444-3.33-5.046-6.546-7.783-9.636c-1.083-1.235-2.201-2.448-3.341-3.646c-0.705-0.757-1.423-1.497-2.146-2.229
	c-0.438-0.441-0.877-0.881-1.32-1.309c0.655-0.773,1.302-1.539,1.968-2.308c1.364-1.578,2.757-3.131,4.179-4.671
	c3.758-4.074,7.674-8.001,11.733-11.777c5.646-5.294,11.577-10.286,17.797-14.879c6.11-4.568,12.51-8.753,19.252-12.354
	c6.219-3.386,12.739-6.288,19.575-8.104c2.508-0.707,5.079-1.265,7.667-1.657c1.555-0.241,3.122-0.423,4.689-0.506
	c0.925-0.049,1.851-0.069,2.771-0.088c0.056,0.039,0.104,0.073,0.15,0.112c0.09,0.071,0.193,0.137,0.282,0.205
	c0.239,0.188,0.475,0.357,0.721,0.53c0.314,0.228,0.637,0.456,0.963,0.674c0.32,0.22,0.667,0.435,0.993,0.645
	c0.329,0.211,0.673,0.413,1.005,0.615c0.136,0.084,0.275,0.162,0.405,0.241c0.145,0.077,0.279,0.158,0.409,0.241
	c0.085,0.051,0.181,0.099,0.263,0.143c0.073,0.036,0.137,0.075,0.211,0.115c0.073,0.043,0.146,0.08,0.221,0.123
	c0.126,0.065,0.257,0.133,0.392,0.206c0.355,0.191,0.718,0.368,1.074,0.556c0.308,0.15,0.604,0.289,0.912,0.44
	c0.3,0.145,0.608,0.282,0.92,0.414c0.312,0.146,0.633,0.271,0.936,0.4c0.141,0.044,0.258,0.105,0.389,0.151
	c0.123,0.041,0.25,0.097,0.391,0.144c0.213,0.084,0.443,0.17,0.679,0.24c0.184,0.062,0.378,0.121,0.574,0.178
	c0.189,0.061,0.392,0.119,0.568,0.167c0.198,0.065,0.393,0.108,0.588,0.169c0.082,0.023,0.16,0.041,0.233,0.064
	c0.081,0.027,0.161,0.043,0.229,0.074c0.296,0.086,0.58,0.168,0.869,0.249c0.235,0.074,0.471,0.151,0.716,0.214
	c0.235,0.067,0.477,0.134,0.714,0.19c0.239,0.071,0.485,0.128,0.726,0.189c0.094,0.016,0.2,0.043,0.29,0.062
	c0.104,0.021,0.201,0.039,0.303,0.061c0.567,0.11,1.139,0.206,1.718,0.294c0.469,0.076,0.966,0.136,1.451,0.192
	c0.485,0.065,0.966,0.11,1.451,0.146c0.493,0.041,0.995,0.062,1.481,0.086c0.2,0.003,0.4,0.005,0.595,0.012
	c0.125,0,0.245,0.002,0.371,0.002h0.232c0.649-0.002,1.312-0.002,1.97-0.026c1.28-0.045,2.571-0.155,3.854-0.34
	c3.12-0.427,6.201-1.236,9.116-2.428c3.838-1.498,7.409-3.64,10.542-6.312c3.169-2.599,5.897-5.71,8.092-9.186
	c2.272-3.487,3.979-7.351,4.992-11.37c0.431-1.65,0.764-3.327,0.979-5.013c0.221-1.717,0.332-3.462,0.327-5.2
	c0.032-5.089-0.906-10.246-2.896-14.944c-1.479-3.854-3.646-7.405-6.313-10.543c-2.59-3.154-5.687-5.896-9.142-8.09
	c-3.468-2.271-7.324-3.989-11.333-4.983c-1.643-0.44-3.305-0.768-5-0.979c-1.064-0.148-2.14-0.241-3.216-0.285
	C368.694,20.611,368.033,20.598,367.384,20.59 M86.919,250.836c0.015-1.133,0.042-2.271,0.082-3.407
	c0.317-7.644,1.939-15.305,4.912-22.408c2.576-6.632,6.306-12.776,10.896-18.188c4.479-5.465,9.818-10.198,15.797-13.971
	c5.99-3.925,12.632-6.881,19.56-8.616c2.842-0.76,5.727-1.32,8.623-1.695c2.985-0.387,5.981-0.578,8.987-0.578
	c7.04-0.036,14.152,1.005,20.852,3.221c5.452,1.669,10.649,4.104,15.452,7.147c4.78,2.954,9.183,6.514,13.096,10.582
	c3.952,4.017,7.418,8.535,10.147,13.434c1.13,1.967,2.153,3.995,3.116,6.052c0.987,2.073,1.922,4.181,2.521,6.385
	c0.414,1.449,0.686,2.95,0.94,4.45c0.225,1.278,0.44,2.547,0.616,3.824c0.18,1.312,0.321,2.632,0.427,3.949
	c0.12,1.355,0.219,2.708,0.263,4.059c0.013,0.56,0.034,1.116,0.039,1.667c0.01,0.345,0.013,0.692,0.015,1.047v0.632
	c-0.015,1.132-0.026,2.258-0.077,3.392c-0.095,2.229-0.317,4.44-0.65,6.65c-0.768,5.382-2.176,10.664-4.25,15.697
	c-2.593,6.592-6.286,12.742-10.862,18.137c-4.461,5.463-9.803,10.17-15.762,13.939c-5.982,3.918-12.597,6.861-19.515,8.586
	c-2.825,0.758-5.702,1.312-8.603,1.689c-1.838,0.244-3.7,0.418-5.562,0.5c-1.121,0.045-2.261,0.061-3.392,0.082
	c-0.838-0.004-1.68-0.021-2.519-0.051c-1.654-0.045-3.312-0.18-4.962-0.352c-4.021-0.436-8.026-1.213-11.917-2.391
	c-5.083-1.447-9.979-3.535-14.541-6.188c-4.557-2.561-8.78-5.672-12.603-9.234c-3.851-3.506-7.304-7.471-10.185-11.799
	c-1.178-1.723-2.267-3.52-3.288-5.34c-1.041-1.83-2.008-3.701-2.811-5.646c-0.796-1.861-1.43-3.793-1.994-5.75
	c-0.482-1.637-0.914-3.285-1.28-4.955c-0.37-1.682-0.675-3.38-0.917-5.092c-0.242-1.723-0.419-3.465-0.529-5.211
	c-0.037-0.708-0.069-1.403-0.088-2.115c-0.023-0.443-0.032-0.888-0.035-1.329C86.921,251.369,86.919,251.098,86.919,250.836"/>
<g>
	<path fill="#FFFFFF" d="M506.646,515.705h-31.173l-5.48,23.637h-30.146L473.76,428.01h35.627l33.913,111.332h-31.173
		L506.646,515.705z M501.337,492.926l-1.884-7.707c-2.74-10.621-5.48-24.152-8.222-35.285h-0.685
		c-2.398,11.305-5.139,24.664-7.879,35.285l-1.885,7.707H501.337z"/>
	<path fill="#FFFFFF" d="M570.598,428.01h43.163c23.979,0,44.532,8.906,44.532,36.996c0,27.234-21.238,39.053-44.532,39.053h-13.703
		v35.283h-29.46V428.01z M612.39,480.763c11.647,0,17.128-5.822,17.128-15.758c0-9.934-6.166-13.701-17.128-13.701h-12.332v29.459
		H612.39z"/>
	<path fill="#FFFFFF" d="M692.588,428.01h29.46v111.332h-29.46V428.01z"/>
</g>
</svg>
